<svg width="183" height="183" viewBox="0 0 183 183" fill="none" xmlns="http://www.w3.org/2000/svg">
<path d="M3.84093e-09 91.5C3.84093e-09 40.9659 40.9659 1.69863e-09 91.5 1.69863e-09C142.034 1.69863e-09 183 40.9659 183 91.5C183 142.034 142.034 183 91.5 183C40.9659 183 3.84093e-09 142.034 3.84093e-09 91.5Z" fill="#FCEAD0"/>
<path d="M87.1035 0.0395376C69.9177 1.06534 54.4357 6.17603 40.6577 15.3716C29.6096 22.7354 19.9357 32.8835 13.1383 44.1673C5.80957 56.3487 1.68715 69.0063 0.239728 83.7339C-0.108387 87.2692 -0.0717433 96.2084 0.313015 100.092C2.05359 117.347 8.17308 133.101 18.4699 146.747C23.6184 153.58 30.6906 160.504 37.6712 165.578C51.2111 175.397 66.3815 181.057 83.714 182.76C87.2501 183.108 96.1912 183.072 100.075 182.687C123.93 180.287 145.294 169.26 160.794 151.363C170.981 139.585 178.035 125.297 181.186 110.02C182.505 103.554 183 98.5714 183 91.519C183 82.3784 181.956 74.7581 179.537 66.3685C175.067 50.8167 167.042 37.3897 155.426 26.0326C140.402 11.36 121.475 2.54909 100.295 0.387577C97.6752 0.112809 89.4304 -0.0886875 87.1035 0.0395376ZM100.57 18.7787C117.096 21.0135 131.003 27.7362 142.692 39.1299C155.609 51.7326 163.157 67.9256 164.623 86.1152C164.916 89.8154 164.733 96.9594 164.257 100.586C162.058 117.036 155.297 131.012 143.901 142.699C131.296 155.613 115.099 163.16 96.9057 164.626C93.2047 164.919 86.0592 164.736 82.4315 164.259C65.9785 162.061 51.9439 155.284 40.3096 143.908C27.3744 131.25 19.8441 115.112 18.3783 96.9228C18.0852 93.2225 18.2684 86.0786 18.7448 82.4516C20.9434 66.0022 27.7225 51.9707 39.1003 40.3388C51.5592 27.5896 67.4076 20.1159 85.4546 18.4307C88.496 18.1559 97.437 18.3574 100.57 18.7787Z" fill="#822E2E"/>
<path d="M87.8364 23.4864C70.6505 24.6588 56.0114 31.0883 44.0656 42.7019C32.5594 53.9124 25.7437 67.779 23.7833 84.0087C23.3802 87.2509 23.3436 95.1276 23.6917 98.2966C25.2124 111.925 29.8845 123.355 38.3858 134.181C40.3645 136.691 46.1359 142.479 48.7193 144.531L50.7347 146.125L50.7713 144.879C50.7897 144.201 50.9362 133.907 51.1011 122.018L51.3943 100.403L49.3239 98.2966C45.0916 93.9919 42.1418 88.4782 41.3906 83.5141C40.4561 77.3776 41.7753 71.0396 44.6885 67.4493C45.8061 66.0755 48.0597 64.2986 49.4522 63.6758C52.6218 62.247 56.2312 62.3569 60.2071 64.0239C60.9216 64.3353 61.5446 64.5551 61.5629 64.5368C61.5995 64.5185 61.4163 63.4927 61.1781 62.302C59.9323 56.2021 60.2621 51.1464 62.1858 47.0798C64.641 41.8409 68.8 38.2506 72.8492 37.9209C75.6707 37.6828 79.5366 38.5987 82.2666 40.1557C85.1248 41.786 88.8808 45.0466 90.8595 47.6294C91.3725 48.2888 91.8306 48.82 91.8855 48.82C91.9588 48.8384 92.4902 48.2522 93.0764 47.5195C96.3377 43.4895 101.065 39.6977 104.509 38.3239C106.69 37.463 110.354 37.2065 112.461 37.756C116.895 38.9101 119.9 41.6761 121.823 46.3654C123.234 49.7726 123.253 49.9191 123.344 55.2496C123.417 60.4519 123.307 61.6975 122.538 64.2803C122.3 65.0863 122.117 65.7641 122.153 65.8007C122.172 65.819 123.069 65.3977 124.15 64.8665C125.25 64.3353 126.807 63.7125 127.631 63.4927C129.482 62.9798 132.084 62.8149 133.494 63.108C137.782 64.0056 140.805 68.2919 141.684 74.7215C141.977 76.8464 141.941 82.2318 141.629 83.8988C140.622 89.0827 137.012 95.6955 132.633 100.312L131.681 101.319L131.369 124.015C131.204 136.489 131.113 146.747 131.149 146.784C131.259 146.912 133.916 144.861 136.114 142.974C138.515 140.922 142.509 136.782 144.378 134.474C152.769 123.978 157.588 112.475 159.218 99.0293C159.621 95.7871 159.658 87.9104 159.31 84.7414C157.551 68.8781 151.175 55.2496 140.328 44.094C129.17 32.6454 115.099 25.7212 99.1959 23.8345C96.8141 23.5597 89.9068 23.3399 87.8364 23.4864Z" fill="#822E2E"/>
<path d="M106.653 44.1673C102.604 45.5961 97.1073 53.0331 95.5316 59.2063C94.7987 62.0272 94.5788 66.0571 95.0003 68.6033C95.3117 70.6183 96.4477 73.5125 97.6386 75.3993L98.1516 76.2236L98.6646 74.117C99.8372 69.3361 101.944 64.7566 105.169 59.9207C107.899 55.8358 110.574 50.1389 111.911 45.5778L112.186 44.6069L111.362 44.2406C110.354 43.8193 107.734 43.7643 106.653 44.1673Z" fill="#822E2E"/>
<path d="M74.5714 44.3871L74.0401 44.4787L74.1683 46.6036C74.5897 53.3446 76.1837 57.3745 79.9214 61.1113C82.9445 64.1338 84.5751 66.4235 85.6561 69.0979C86.6088 71.4609 86.8104 72.6699 86.8104 75.7107L86.7921 78.495L87.415 77.7256C88.3861 76.5167 89.632 73.8239 90.1266 71.8639C91.3359 67.028 91.0977 61.7891 89.467 57.1364C88.7525 55.1397 88.2395 54.1139 87.0119 52.2272C83.4208 46.6768 78.7854 43.7643 74.5714 44.3871Z" fill="#822E2E"/>
<path d="M71.7315 45.9991C70.0826 47.5195 68.6351 49.9374 67.8839 52.4103C65.6303 59.6642 69.313 72.8714 75.1943 78.6965C76.7517 80.2352 78.0709 81.0045 79.6465 81.261C81.4787 81.5541 83.769 80.9862 85.2347 79.8505L85.876 79.3742L85.7477 77.8172C85.3813 73.2744 83.0544 68.3652 79.1518 63.859C75.4142 59.5543 73.9301 56.9165 73.1606 53.2346C73.0324 52.6851 72.9041 50.6152 72.8308 48.6552L72.7209 45.0832L71.7315 45.9991Z" fill="#822E2E"/>
<path d="M113.579 46.3838C112.864 49.5711 110.959 54.1139 108.925 57.5393C105.462 63.3095 102.311 69.7207 99.9288 75.7656C99.141 77.7623 99.1227 77.7623 100.698 78.6049C103.373 80.0703 107.129 78.898 110.152 75.6923C113.267 72.3585 116.217 66.0571 116.986 61.0564C117.115 60.2687 117.151 58.3087 117.115 56.1655C117.023 52.7401 117.005 52.5202 116.437 50.7617C115.722 48.6185 114.953 47.0615 114.22 46.3654L113.689 45.8525L113.579 46.3838Z" fill="#822E2E"/>
<path d="M54.0693 68.4568C52.97 68.7132 52.0172 69.2811 51.0095 70.2886C50.0934 71.2045 48.9941 72.8714 48.9941 73.366C48.9941 73.8056 51.0462 76.4983 52.5669 78.0554C54.0876 79.6124 55.4068 80.6565 56.9641 81.5358C59.2177 82.8363 62.0759 85.4191 63.4134 87.4158C64.6043 89.156 65.3006 90.6397 66.3266 93.6256L67.261 96.3732L68.0122 95.2009C71.2368 90.2184 70.5772 82.6898 66.3815 76.4067C65.2089 74.6482 62.3141 71.6075 60.7934 70.5267C59.346 69.4826 57.752 68.7132 56.5427 68.4568C55.4434 68.2187 55.0403 68.2187 54.0693 68.4568Z" fill="#822E2E"/>
<path d="M126.129 71.2411C123.491 72.0288 121.109 73.6041 118.525 76.2053C116.052 78.7148 114.385 81.3892 113.175 84.833C112.681 86.2251 112.662 86.4449 112.662 89.5956V92.8928L113.285 94.2117C113.615 94.9444 114.037 95.6588 114.202 95.8054C114.495 96.0801 114.531 95.9336 114.843 94.0652C115.759 88.3134 117.023 85.6023 120.211 82.5249C122.025 80.7847 123.381 79.7956 125.396 78.7881C128.144 77.4142 130.196 75.7656 131.845 73.5858C132.853 72.2486 132.835 72.1753 131.369 71.4243C130.032 70.7282 127.998 70.6733 126.129 71.2411Z" fill="#822E2E"/>
<path d="M133.293 75.1245C132.194 76.6449 130.27 78.3668 127.87 79.9421C124.553 82.1219 122.813 83.4774 121.036 85.181C117.884 88.2218 116.07 91.4274 115.246 95.3474C114.971 96.6846 114.989 96.703 115.374 97.0327C115.594 97.2342 116.309 97.6555 116.968 97.9669C118.104 98.5531 118.232 98.5714 120.266 98.5714C122.062 98.5531 122.575 98.4798 123.711 98.0768C125.799 97.3258 126.972 96.5381 129.079 94.4499C131.681 91.8854 133.384 89.2659 134.649 85.8405C135.125 84.6132 135.18 84.1735 135.253 81.5907C135.308 79.3926 135.253 78.3668 135.033 77.231C134.704 75.6374 134.246 74.3002 134.026 74.3002C133.952 74.3002 133.623 74.6666 133.293 75.1245Z" fill="#822E2E"/>
<path d="M48.2612 75.1978C47.6383 77.5058 47.5284 81.2427 47.9864 83.8804C49.0491 89.9986 53.4463 95.9886 58.4115 98.0768C59.4009 98.4981 59.7857 98.5531 61.7278 98.5714C63.8715 98.5714 63.9447 98.5531 65.0624 97.9669C65.6853 97.6188 66.3632 97.1609 66.5831 96.9228L66.9678 96.5198L66.4915 95.2558C65.4288 92.4166 63.8165 90.7496 58.3383 86.8479C56.1763 85.3092 55.2602 84.4849 53.7944 82.8363C52.3104 81.1511 50.8263 78.9163 49.5255 76.4251L48.4811 74.4101L48.2612 75.1978Z" fill="#822E2E"/>
<path d="M91.5557 85.1993C88.3861 86.0603 86.334 87.2692 83.256 90.0902C78.5839 94.3583 73.1789 100.824 69.8627 106.082C67.2243 110.295 65.9052 113.464 65.722 116.065C65.4288 120.333 67.719 123.41 72.1896 124.803C73.8752 125.315 78.3091 125.224 81.7902 124.601C86.7921 123.703 88.3311 123.52 90.6763 123.63C94.2307 123.795 96.5942 124.491 103.85 127.495C108.998 129.62 109.731 129.803 113.285 129.803C116.052 129.803 116.18 129.785 117.261 129.272C117.866 128.979 118.782 128.338 119.313 127.807C121.237 125.883 121.75 124.4 121.75 120.553C121.75 118.3 121.695 117.732 121.2 115.882C119.845 110.625 116.895 104.983 112.772 99.762C110.702 97.1426 105.828 92.3616 103.08 90.2367C98.5913 86.7747 96.7775 85.6756 94.7621 85.1993C93.3513 84.8696 92.7833 84.8696 91.5557 85.1993Z" fill="#822E2E"/>
</svg>
