<svg width="89" height="78" viewBox="0 0 89 78" fill="none" xmlns="http://www.w3.org/2000/svg">
<path d="M23.0854 13.8043C21.9636 14.4441 21.4335 14.876 20.5702 15.8663C18.9789 17.6894 18.0084 20.5318 17.9636 23.4961C17.9519 24.8699 18.018 25.2283 18.6493 27.5248C19.2729 29.7934 19.4109 30.1772 20.0888 31.2861C22.0539 34.4812 24.7337 36.4405 27.8134 36.9043C30.7798 37.3691 33.4928 36.322 35.4664 33.942C37.8975 30.9843 38.6079 26.7827 37.3953 22.3717C36.5022 19.1229 34.9035 16.6706 32.4621 14.8114C29.6152 12.657 25.8524 12.2454 23.0854 13.8043Z" fill="#572908"/>
<path d="M46.1559 7.44723C43.0157 9.12377 41.0382 12.9056 41.0119 17.2355C41.0054 18.8639 41.7284 22.0841 42.4349 23.5919C45.1003 29.2754 50.707 32.0869 55.2725 30.0487C58.8285 28.4687 60.9799 24.7294 61.0495 20.0261C61.0653 18.7265 60.9877 18.3261 60.3641 16.0576C59.7366 13.775 59.6064 13.4192 58.898 12.2584C55.7827 7.18058 50.4445 5.16882 46.1559 7.44723Z" fill="#572908"/>
<path d="M11.0609 36.328C9.16644 37.2254 7.47497 39.3923 7.01405 41.492C6.62695 43.2703 6.67757 44.2806 7.27392 46.3909C7.73554 48.0111 7.9152 48.4287 8.55463 49.3976C12.0412 54.7047 18.2794 56.2733 22.4263 52.8891C24.1068 51.5084 25.1552 49.1267 25.1872 46.5875C25.2136 45.1494 24.4254 42.4592 23.5762 41.0811C20.6932 36.3762 15.2754 34.311 11.0609 36.328Z" fill="#572908"/>
<path d="M68.4456 20.6135C65.2673 22.2102 63.1127 26.0558 63.0591 30.2275C63.0336 31.8461 63.7313 34.5611 64.4892 35.7837C66.6753 39.3698 70.6361 40.7963 74.1811 39.2946C77.0595 38.0816 79.1261 35.4501 79.9012 32.0741C80.3769 29.91 80.351 28.5767 79.7656 26.388C79.396 25.0437 79.1394 24.3461 78.7624 23.7419C77.4373 21.636 75.44 20.212 73.32 19.876C71.4231 19.5842 70.0988 19.7825 68.4456 20.6135Z" fill="#572908"/>
<path d="M40.1421 36.3766C32.9932 39.6974 28.1777 47.3169 27.5343 56.365C27.2976 59.4574 27.4704 61.4432 28.1418 63.4727C29.0475 66.236 30.4457 67.9 33.096 69.2801C34.3833 69.9504 34.9961 70.1735 36.1487 70.3537C37.6603 70.6009 39.3365 70.5618 40.528 70.2343C41.4328 69.9855 43.1088 69.1784 44.151 68.4852C46.8526 66.6883 51.3748 65.0235 54.7706 64.5719C56.5213 64.3317 57.4649 64.2831 60.1911 64.2868C63.0946 64.2869 65.1223 63.5789 67.2161 61.8134C68.1146 61.0694 68.5423 60.5602 69.3022 59.3121C70.126 58.0012 70.3311 57.508 70.6001 56.2442C71.0421 54.1346 70.9709 52.8137 70.2764 50.7002C69.1635 47.301 66.2115 43.1121 62.9343 40.2777C58.1058 36.1076 52.0575 34.05 46.3858 34.6603C44.7028 34.8518 41.6111 35.7017 40.1421 36.3766Z" fill="#572908"/>
</svg>
