<svg width="70" height="70" viewBox="0 0 70 70" fill="none" xmlns="http://www.w3.org/2000/svg">
<circle cx="35" cy="35" r="35" fill="#822E2E"/>
<path fill-rule="evenodd" clip-rule="evenodd" d="M20.423 26.7655C21.0705 26.7655 21.6915 26.5083 22.1493 26.0505C22.6072 25.5926 22.8644 24.9716 22.8644 24.3241C22.8644 23.6766 22.6072 23.0557 22.1493 22.5978C21.6915 22.14 21.0705 21.8828 20.423 21.8828C19.7755 21.8828 19.1545 22.14 18.6967 22.5978C18.2389 23.0557 17.9816 23.6766 17.9816 24.3241C17.9816 24.9716 18.2389 25.5926 18.6967 26.0505C19.1545 26.5083 19.7755 26.7655 20.423 26.7655ZM20.423 31.6483C22.3655 31.6483 24.2284 30.8766 25.602 29.5031C26.9755 28.1296 27.7472 26.2666 27.7472 24.3241C27.7472 22.3817 26.9755 20.5187 25.602 19.1452C24.2284 17.7716 22.3655 17 20.423 17C18.4805 17 16.6176 17.7716 15.2441 19.1452C13.8705 20.5187 13.0989 22.3817 13.0989 24.3241C13.0989 26.2666 13.8705 28.1296 15.2441 29.5031C16.6176 30.8766 18.4805 31.6483 20.423 31.6483Z" fill="#FFFBFB"/>
<path fill-rule="evenodd" clip-rule="evenodd" d="M20.5448 33.4793C19.5736 33.4793 18.6421 33.8651 17.9554 34.5519C17.2686 35.2387 16.8828 36.1702 16.8828 37.1414V40.8035C16.8828 41.451 16.6255 42.0719 16.1677 42.5298C15.7099 42.9876 15.0889 43.2448 14.4414 43.2448C13.7939 43.2448 13.1729 42.9876 12.7151 42.5298C12.2572 42.0719 12 41.451 12 40.8035V37.1414C12 34.8752 12.9003 32.7018 14.5027 31.0993C16.1052 29.4968 18.2786 28.5966 20.5448 28.5966C22.8111 28.5966 24.9845 29.4968 26.5869 31.0993C28.1894 32.7018 29.0897 34.8752 29.0897 37.1414V40.8035C29.0897 41.451 28.8325 42.0719 28.3746 42.5298C27.9168 42.9876 27.2958 43.2448 26.6483 43.2448C26.0008 43.2448 25.3798 42.9876 24.922 42.5298C24.4641 42.0719 24.2069 41.451 24.2069 40.8035V37.1414C24.2069 36.1702 23.8211 35.2387 23.1343 34.5519C22.4475 33.8651 21.5161 33.4793 20.5448 33.4793ZM49.7193 26.7655C49.0718 26.7655 48.4509 26.5083 47.993 26.0505C47.5352 25.5926 47.278 24.9716 47.278 24.3241C47.278 23.6766 47.5352 23.0557 47.993 22.5978C48.4509 22.14 49.0718 21.8828 49.7193 21.8828C50.3668 21.8828 50.9878 22.14 51.4457 22.5978C51.9035 23.0557 52.1607 23.6766 52.1607 24.3241C52.1607 24.9716 51.9035 25.5926 51.4457 26.0505C50.9878 26.5083 50.3668 26.7655 49.7193 26.7655ZM49.7193 31.6483C47.7769 31.6483 45.9139 30.8766 44.5404 29.5031C43.1668 28.1296 42.3952 26.2666 42.3952 24.3241C42.3952 22.3817 43.1668 20.5187 44.5404 19.1452C45.9139 17.7716 47.7769 17 49.7193 17C51.6618 17 53.5247 17.7716 54.8983 19.1452C56.2718 20.5187 57.0435 22.3817 57.0435 24.3241C57.0435 26.2666 56.2718 28.1296 54.8983 29.5031C53.5247 30.8766 51.6618 31.6483 49.7193 31.6483Z" fill="#FFFBFB"/>
<path fill-rule="evenodd" clip-rule="evenodd" d="M49.5973 33.4792C50.5686 33.4792 51.5 33.865 52.1868 34.5518C52.8736 35.2386 53.2594 36.17 53.2594 37.1413V40.8033C53.2594 41.4508 53.5166 42.0718 53.9745 42.5297C54.4323 42.9875 55.0533 43.2447 55.7008 43.2447C56.3483 43.2447 56.9692 42.9875 57.4271 42.5297C57.8849 42.0718 58.1422 41.4508 58.1422 40.8033V37.1413C58.1422 34.875 57.2419 32.7016 55.6394 31.0992C54.037 29.4967 51.8636 28.5964 49.5973 28.5964C47.3311 28.5964 45.1577 29.4967 43.5552 31.0992C41.9527 32.7016 41.0525 34.875 41.0525 37.1413V40.8033C41.0525 41.4508 41.3097 42.0718 41.7676 42.5297C42.2254 42.9875 42.8464 43.2447 43.4939 43.2447C44.1414 43.2447 44.7623 42.9875 45.2202 42.5297C45.678 42.0718 45.9353 41.4508 45.9353 40.8033V37.1413C45.9353 36.17 46.3211 35.2386 47.0078 34.5518C47.6946 33.865 48.6261 33.4792 49.5973 33.4792Z" fill="#FFFBFB"/>
<path fill-rule="evenodd" clip-rule="evenodd" d="M35.1932 40.1928C33.5745 40.1928 32.0221 40.8359 30.8775 41.9805C29.7328 43.1251 29.0898 44.6775 29.0898 46.2963V49.9583C29.0898 50.6058 28.8326 51.2268 28.3747 51.6847C27.9169 52.1425 27.2959 52.3997 26.6484 52.3997C26.0009 52.3997 25.3799 52.1425 24.9221 51.6847C24.4642 51.2268 24.207 50.6058 24.207 49.9583V46.2963C24.207 43.3825 25.3645 40.5882 27.4248 38.5278C29.4851 36.4675 32.2795 35.3101 35.1932 35.3101C38.107 35.3101 40.9014 36.4675 42.9617 38.5278C45.022 40.5882 46.1795 43.3825 46.1795 46.2963V49.9583C46.1795 50.6058 45.9222 51.2268 45.4644 51.6847C45.0065 52.1425 44.3856 52.3997 43.7381 52.3997C43.0906 52.3997 42.4696 52.1425 42.0118 51.6847C41.5539 51.2268 41.2967 50.6058 41.2967 49.9583V46.2963C41.2967 44.6775 40.6537 43.1251 39.509 41.9805C38.3644 40.8359 36.812 40.1928 35.1932 40.1928Z" fill="#FFFBFB"/>
<path fill-rule="evenodd" clip-rule="evenodd" d="M35.071 33.4791C35.7185 33.4791 36.3394 33.2219 36.7973 32.7641C37.2551 32.3062 37.5123 31.6853 37.5123 31.0378C37.5123 30.3903 37.2551 29.7693 36.7973 29.3114C36.3394 28.8536 35.7185 28.5964 35.071 28.5964C34.4235 28.5964 33.8025 28.8536 33.3447 29.3114C32.8868 29.7693 32.6296 30.3903 32.6296 31.0378C32.6296 31.6853 32.8868 32.3062 33.3447 32.7641C33.8025 33.2219 34.4235 33.4791 35.071 33.4791ZM35.071 38.3619C37.0135 38.3619 38.8764 37.5903 40.2499 36.2167C41.6235 34.8432 42.3951 32.9802 42.3951 31.0378C42.3951 29.0953 41.6235 27.2324 40.2499 25.8588C38.8764 24.4853 37.0135 23.7136 35.071 23.7136C33.1285 23.7136 31.2656 24.4853 29.892 25.8588C28.5185 27.2324 27.7468 29.0953 27.7468 31.0378C27.7468 32.9802 28.5185 34.8432 29.892 36.2167C31.2656 37.5903 33.1285 38.3619 35.071 38.3619Z" fill="#FFFBFB"/>
</svg>
