<svg width="37" height="30" viewBox="0 0 37 30" fill="none" xmlns="http://www.w3.org/2000/svg">
<path d="M11.4271 14.4444C13.3033 14.4444 15.1026 13.6835 16.4292 12.3291C17.7558 10.9747 18.5011 9.13767 18.5011 7.22222C18.5011 5.30677 17.7558 3.46977 16.4292 2.11534C15.1026 0.76091 13.3033 0 11.4271 0C9.55102 0 7.75173 0.76091 6.42511 2.11534C5.09849 3.46977 4.3532 5.30677 4.3532 7.22222C4.3532 9.13767 5.09849 10.9747 6.42511 12.3291C7.75173 13.6835 9.55102 14.4444 11.4271 14.4444ZM23.8055 25.8778C24.9591 26.36 26.4261 26.6667 28.2936 26.6667C37 26.6667 37 20 37 20C37 19.1163 36.6563 18.2688 36.0445 17.6438C35.4327 17.0187 34.6028 16.6673 33.7373 16.6667H23.664C24.5194 17.7244 25.0331 19.0778 25.0331 20.5556V21.3467C25.0284 21.5338 25.0161 21.7206 24.9961 21.9067C24.8479 23.2949 24.4425 24.6421 23.8055 25.8778ZM33.7373 8.88889C33.7373 10.3623 33.164 11.7754 32.1435 12.8173C31.123 13.8591 29.739 14.4444 28.2958 14.4444C26.8526 14.4444 25.4685 13.8591 24.4481 12.8173C23.4276 11.7754 22.8543 10.3623 22.8543 8.88889C22.8543 7.41546 23.4276 6.00239 24.4481 4.96052C25.4685 3.91865 26.8526 3.33333 28.2958 3.33333C29.739 3.33333 31.123 3.91865 32.1435 4.96052C33.164 6.00239 33.7373 7.41546 33.7373 8.88889ZM0 21.1111C0 19.9324 0.458639 18.8019 1.27502 17.9684C2.0914 17.1349 3.19866 16.6667 4.3532 16.6667H18.5011C19.6556 16.6667 20.7629 17.1349 21.5793 17.9684C22.3956 18.8019 22.8543 19.9324 22.8543 21.1111C22.8543 21.1111 22.8543 30 11.4271 30C0 30 0 21.1111 0 21.1111Z" fill="white"/>
</svg>
