<svg width="19" height="17" viewBox="0 0 19 17" fill="none" xmlns="http://www.w3.org/2000/svg">
<path d="M13.293 0.256188C13.4805 0.0921509 13.7348 0 14 0C14.2652 0 14.5195 0.0921509 14.707 0.256188L18.707 3.75619C18.8945 3.92027 18.9998 4.14279 18.9998 4.37481C18.9998 4.60683 18.8945 4.82935 18.707 4.99344L5.707 16.3684C5.51951 16.5325 5.26519 16.6248 5 16.6248H1C0.734783 16.6248 0.48043 16.5326 0.292893 16.3685C0.105357 16.2044 0 15.9819 0 15.7498V12.2498C5.66374e-05 12.0178 0.105451 11.7952 0.293 11.6312L10.293 2.88119L13.293 0.256188ZM11 4.73706L2 12.6121V14.8748H4.586L13.586 6.99981L11 4.73706ZM15 5.76256L16.586 4.37481L14 2.11206L12.414 3.49981L15 5.76256Z" fill="#822E2E"/>
</svg>
