<svg width="30" height="30" viewBox="0 0 30 30" fill="none" xmlns="http://www.w3.org/2000/svg">
<path d="M23.2636 30H25.5273C26.6727 30 27.6136 29.1136 27.75 27.9955L30 5.52273H23.1818V0H20.4955V5.52273H13.7182L14.1273 8.71364C16.4591 9.35455 18.6409 10.5136 19.95 11.7955C21.9136 13.7318 23.2636 15.7364 23.2636 19.0091V30ZM0 28.6364V27.2727H20.4955V28.6364C20.4955 29.3727 19.8818 30 19.0909 30H1.36364C0.613636 30 0 29.3727 0 28.6364ZM20.4955 19.0909C20.4955 8.18182 0 8.18182 0 19.0909H20.4955ZM0 21.8182H20.4545V24.5455H0V21.8182Z" fill="white"/>
</svg>
