<svg width="70" height="70" viewBox="0 0 70 70" fill="none" xmlns="http://www.w3.org/2000/svg">
<circle cx="35" cy="35" r="35" fill="#822E2E"/>
<path d="M44.3008 48.9167H46.86C48.155 48.9167 49.2188 47.9146 49.3729 46.6504L51.9167 21.2438H44.2083V15H41.1713V21.2438H33.5092L33.9717 24.8513C36.6079 25.5758 39.0746 26.8863 40.5546 28.3354C42.7746 30.5246 44.3008 32.7908 44.3008 36.4908V48.9167ZM18 47.375V45.8333H41.1713V47.375C41.1713 48.2075 40.4775 48.9167 39.5833 48.9167H19.5417C18.6938 48.9167 18 48.2075 18 47.375ZM41.1713 36.5833C41.1713 24.25 18 24.25 18 36.5833H41.1713ZM18 39.6667H41.125V42.75H18V39.6667Z" fill="white"/>
</svg>
