<svg width="39" height="32" viewBox="0 0 39 32" fill="none" xmlns="http://www.w3.org/2000/svg">
<path d="M36.7305 27.6738C37.2178 27.6739 37.6729 27.8903 37.999 28.2539C38.3235 28.6158 38.497 29.0962 38.4971 29.5869C38.4971 30.0776 38.3234 30.5581 37.999 30.9199C37.6729 31.2836 37.2178 31.5 36.7305 31.5H18.9932C18.5058 31.5 18.0507 31.2836 17.7246 30.9199C17.4002 30.5581 17.2256 30.0777 17.2256 29.5869C17.2256 29.0961 17.4001 28.6158 17.7246 28.2539C18.0507 27.8902 18.5058 27.6738 18.9932 27.6738H36.7305ZM28.082 0.536133C28.3214 0.484845 28.5685 0.488253 28.8066 0.544922C29.0445 0.601606 29.2665 0.710393 29.46 0.861328C29.6533 1.01219 29.8144 1.20167 29.9355 1.41699C30.0566 1.63227 30.1363 1.87024 30.1719 2.11621C30.2074 2.36222 30.1978 2.61387 30.1445 2.85645C30.0922 3.09432 29.9971 3.32042 29.8643 3.52246L29.8652 3.52344L12.8525 30.623C12.7213 30.8328 12.5519 31.0153 12.3506 31.1562C12.1491 31.2972 11.921 31.3942 11.6797 31.4375C11.4382 31.4807 11.1907 31.4694 10.9541 31.4043C10.7176 31.3392 10.4985 31.2223 10.3096 31.0645L1.18652 23.4346C1.00193 23.2802 0.849102 23.0891 0.735352 22.875C0.621609 22.6608 0.547605 22.4256 0.516602 22.1836C0.454264 21.697 0.567011 21.1972 0.838867 20.793C1.11158 20.3877 1.5287 20.104 2.00879 20.0273C2.49074 19.9506 2.97396 20.0929 3.34863 20.4062L10.9854 26.792L26.9424 1.37207H26.9434C27.0676 1.16449 27.2294 0.982658 27.4219 0.838867C27.6185 0.691969 27.8428 0.587445 28.082 0.536133ZM36.7305 19.1963C37.2178 19.1963 37.6729 19.4127 37.999 19.7764C38.3234 20.1382 38.4971 20.6187 38.4971 21.1094C38.497 21.6001 38.3235 22.0806 37.999 22.4424C37.6729 22.806 37.2178 23.0224 36.7305 23.0225H24.0615C23.5742 23.0224 23.1191 22.806 22.793 22.4424C22.4685 22.0806 22.295 21.6001 22.2949 21.1094C22.2949 20.6187 22.4686 20.1382 22.793 19.7764C23.1191 19.4127 23.5742 19.1963 24.0615 19.1963H36.7305ZM36.7324 10.7188C37.2196 10.7188 37.6749 10.9344 38.001 11.2979C38.3254 11.6596 38.4999 12.1402 38.5 12.6309C38.5 13.1216 38.3254 13.602 38.001 13.9639C37.6748 14.3275 37.2198 14.5439 36.7324 14.5439H29.1299C28.6426 14.5439 28.1884 14.3275 27.8623 13.9639C27.5378 13.602 27.3633 13.1217 27.3633 12.6309C27.3634 12.1402 27.5379 11.6596 27.8623 11.2979C28.1884 10.9345 28.6428 10.7188 29.1299 10.7188H36.7324Z" fill="white" stroke="white"/>
</svg>
