<svg width="34" height="34" viewBox="0 0 34 34" fill="none" xmlns="http://www.w3.org/2000/svg">
<path d="M23.375 29.75L30.175 25.5L23.375 21.25V29.75ZM5.1 10.2H25.5V6.8H5.1V10.2ZM25.5 34C23.1483 34 21.144 33.171 19.4871 31.5129C17.8302 29.8548 17.0011 27.8505 17 25.5C16.9989 23.1495 17.8279 21.1452 19.4871 19.4871C21.1463 17.829 23.1506 17 25.5 17C27.8494 17 29.8543 17.829 31.5146 19.4871C33.1749 21.1452 34.0034 23.1495 34 25.5C33.9966 27.8505 33.1676 29.8554 31.5129 31.5146C29.8582 33.1738 27.8539 34.0023 25.5 34ZM0 32.3V3.4C0 2.465 0.3332 1.66487 0.9996 0.9996C1.666 0.334333 2.46613 0.00113333 3.4 0H27.2C28.135 0 28.9357 0.3332 29.6021 0.9996C30.2685 1.666 30.6011 2.46613 30.6 3.4V14.7475C29.8067 14.3508 28.9776 14.0601 28.1129 13.8754C27.2482 13.6907 26.3772 13.5989 25.5 13.6H5.1V17H17.17C16.6883 17.4817 16.2424 18.0058 15.8321 18.5725C15.4218 19.1392 15.0603 19.7483 14.7475 20.4H5.1V23.8H13.7275C13.6708 24.0833 13.6357 24.3599 13.6221 24.6296C13.6085 24.8993 13.6011 25.1895 13.6 25.5C13.6 26.69 13.7632 27.8307 14.0896 28.9221C14.416 30.0135 14.9045 31.0545 15.555 32.045L15.3 32.3L12.75 29.75L10.2 32.3L7.65 29.75L5.1 32.3L2.55 29.75L0 32.3Z" fill="white"/>
</svg>
