<svg width="39" height="30" viewBox="0 0 39 30" fill="none" xmlns="http://www.w3.org/2000/svg">
<path d="M38.61 26.4632H0.39C0.1755 26.4632 0 26.6401 0 26.8562V29.607C0 29.8232 0.1755 30 0.39 30H38.61C38.8245 30 39 29.8232 39 29.607V26.8562C39 26.6401 38.8245 26.4632 38.61 26.4632ZM2.61787 20.3131L4.55325 22.2535C4.70437 22.4057 4.953 22.4057 5.10412 22.2535L16.5457 10.7638L21.3037 15.5434C21.5969 15.836 21.9928 16.0002 22.4055 16.0002C22.8182 16.0002 23.2141 15.836 23.5072 15.5434L36.387 2.61447C36.5381 2.46219 36.5381 2.21167 36.387 2.05939L34.4516 0.11416C34.3783 0.0410259 34.2793 0 34.1762 0C34.073 0 33.974 0.0410259 33.9007 0.11416L22.4104 11.6578L17.6475 6.87826C17.3544 6.58561 16.9584 6.42142 16.5457 6.42142C16.1331 6.42142 15.7371 6.58561 15.444 6.87826L2.61787 19.7581C2.58141 19.7943 2.55246 19.8376 2.53269 19.8852C2.51293 19.9328 2.50276 19.984 2.50276 20.0356C2.50276 20.0872 2.51293 20.1384 2.53269 20.186C2.55246 20.2336 2.58141 20.2769 2.61787 20.3131Z" fill="#822E2E"/>
</svg>
